<?xml version="1.0" encoding="UTF-8"?><svg id="b" xmlns="http://www.w3.org/2000/svg" viewBox="0 0 128 128"><g id="c"><g id="d"><rect width="128" height="128" style="fill:#0504aa;"/><path d="M109.81281,76.7375c-26.21924,23.88077-58.53268,23.95162-91.62562.21257,1.48812-3.82661,2.97624-7.65318,4.81867-12.33015,26.99873,19.06211,54.06833,20.62106,81.20877.07085,2.1259,4.53528,3.89746,8.36189,5.59817,12.04672h.00001Z" style="fill:#fff;"/><path d="M45.32765,33.29861c7.15714,0,12.82617,5.66902,12.82617,12.75531,0,7.01543-5.73989,12.82616-12.75531,12.82616-7.22801.07085-13.03875-5.81076-12.89703-13.03877,0-7.08624,5.59816-12.54268,12.82617-12.54268h0Z" style="fill:#fff;"/><path d="M66.51563,52.28984v-12.54273h40.25008v12.54273h-40.25008Z" style="fill:#fff;"/></g></g></svg>